<?xml version="1.0" encoding="UTF-8"?>
<svg id="Layer_1" xmlns="http://www.w3.org/2000/svg" version="1.1" viewBox="0 0 100 100">
  <!-- Generator: Adobe Illustrator 29.2.1, SVG Export Plug-In . SVG Version: 2.1.0 Build 116)  -->
  <defs>
    <style>
      .st0 {
        fill: #f39e8b;
        stroke: #f39e8b;
      }

      .st0, .st1, .st2 {
        stroke-miterlimit: 10;
      }

      .st1 {
        fill: #eab6c3;
        stroke: #eab6c3;
      }

      .st3 {
        fill: #fed9b9;
        stroke: #fed9b9;
      }

      .st4 {
        fill: #f6c69a;
      }

      .st5 {
        fill: #fac8d5;
        stroke: #fac8d5;
      }

      .st2 {
        fill: none;
        stroke: #f6c69a;
      }

      .st6 {
        fill: #f9b6a8;
        stroke: #f9b6a8;
      }
    </style>
  </defs>
  <g id="orangepinkblobbottomright">
    <path class="st0" d="M63.5,98.8c-.5-1.3-.5-2.8-.2-4.1s1-2.6,1.5-3.9c.8-1.8,1.6-3.6,2.4-5.4,1.4-3.5,2.7-7.1,2.5-10.8-.2-4.2-2.3-8-3.7-12-.5-1.5-1-3.1-.8-4.6s.8-3.2,2.1-4c1.8-1.2,4.4-.6,6.1.8,1.7,1.4,2.7,3.4,3.7,5.4,1.8,3.6,3.6,7.4,3.6,11.4.1,5.5-2.9,10.4-5.3,15.3-1,2.1-2,4.3-1.9,6.6,0,2,.9,3.8,1.9,5.5h-12s0,0,0,0Z"/>
  </g>
  <path class="st6" d="M65.9,91.5c-2,3.7-1.2,5.1-.6,5.3,2.4.1,7-.3,5.7-3.2-1.5-3.6.6-4.2,1-6.4s4.1-5.6,5.6-8.4c1.5-2.8.7-9.4-2.2-18.7-2.4-7.4-6.5-4.7-8.3-2.4.1,1.8,1,6.2,3.1,9.3,2.7,3.8,2,8.3,2.5,10.2s-4.3,9.7-6.9,14.3h0Z"/>
  <g id="yellowblobtopright">
    <path class="st4" d="M56.3,26.8c.6-1.5,1.3-3.1.8-4.6-.4-1.1-1.3-2-2.2-2.7-1.4-1.1-3-2.1-4.2-3.4-2.1-2.4-3-5.8-1.9-8.8,1.1-3,4.1-5.2,7.3-5,1.5.1,3,.7,4,1.8,1.6,1.7,1.8,4.2,2,6.5.2,2.3.4,4.8,2,6.5.6.7,1.4,1.2,2.1,1.8,1.5,1.4,2.4,3.5,2.5,5.6.1,2.1-.4,4.2-1.4,6.1-.5,1-1.2,2-2.1,2.6-.7.5-1.5.8-2.3,1-1.6.4-3.3.6-4.8,0-1.5-.6-2.9-1.9-3-3.6-.1-1.7,1.1-3.1,1.6-4.7"/>
    <path class="st2" d="M56.3,26.8c.6-1.5,1.3-3.1.8-4.6-.4-1.1-1.3-2-2.2-2.7-1.4-1.1-3-2.1-4.2-3.4-2.1-2.4-3-5.8-1.9-8.8,1.1-3,4.1-5.2,7.3-5,1.5.1,3,.7,4,1.8,1.6,1.7,1.8,4.2,2,6.5.2,2.3.4,4.8,2,6.5.6.7,1.4,1.2,2.1,1.8,1.5,1.4,2.4,3.5,2.5,5.6.1,2.1-.4,4.2-1.4,6.1-.5,1-1.2,2-2.1,2.6-.7.5-1.5.8-2.3,1-1.6.4-3.3.6-4.8,0-1.5-.6-2.9-1.9-3-3.6-.1-1.7,1.1-3.1,1.6-4.7"/>
  </g>
  <path class="st3" d="M60.4,12.6c-1.7-6.5-4.7-7.6-6-7.3-2.4-1-3.7,2-4,3.5,0,.7,1.2,3.2,6.2,7.5,6.4,5.4,2.6,4.6.6,11.9-2,7.3,5.8,4.6,8.7,2.7,2.4-1.5,1.4-5.7.7-7.5-1.4-.9-4.5-4.3-6.2-10.8h0Z"/>
  <g id="Purplepinkblobbottomleft">
    <path class="st1" d="M21,97c-.9-1.3-1.1-3-.8-4.5.3-1.6,1-3,1.7-4.4,2.1-3.9,4.8-7.5,6.6-11.7,2.6-6,3-12.9,1.9-19.3-.9-5.1-2.9-10.3-1.4-15.3.7-2.4,2.1-4.5,3.8-6.3,1.4-1.5,3-2.9,4.8-3.7,2.9-1.2,6.3-1,9,.5,2.7,1.5,4.8,4.2,5.6,7.2.7,2.4.6,4.9.5,7.3-.2,4.2-.7,8.4-2.2,12.3-1.7,4.5-4.5,8.4-7.3,12.2-2.8,3.8-5.6,7.8-7.3,12.2-1.6,4.5-2.3,9.2,0,13.4h-14.8c0,0,0,0,0,0Z"/>
  </g>
  <path class="st5" d="M47.4,39.4c-1.2-7.3-5.4-4.8-9.8-3.6-4.9,1.2-7.1,8-7.5,11.3,2.3,7.4,5.5,23.9.2,30.4-5.4,6.5-9,13.1-8.2,16.7,3.2,1.5,8.6.3,7.9-4.3s4-11.9,6.4-15c2.3-2.2,7.6-8.4,10.2-15.1,3.3-8.4,2.2-11.3.7-20.4h0Z"/>
</svg>