<?xml version="1.0" encoding="UTF-8"?>
<svg xmlns="http://www.w3.org/2000/svg" version="1.1" viewBox="0 0 733 1579">
  <!-- Generator: Adobe Illustrator 29.2.1, SVG Export Plug-In . SVG Version: 2.1.0 Build 116)  -->
  <defs>
    <style>
      .st0 {
        fill: none;
        stroke: #f6c599;
      }

      .st0, .st1, .st2, .st3 {
        stroke-miterlimit: 10;
      }

      .st1 {
        fill: #eab7c3;
        stroke: #eab7c3;
      }

      .st2 {
        fill: #f39e8b;
        stroke: #f39e8b;
      }

      .st4 {
        fill: #ffc9d5;
      }

      .st4, .st5, .st6 {
        stroke: #eab9c5;
      }

      .st5 {
        fill: #ffb8a8;
      }

      .st6 {
        fill: #ffdab9;
      }

      .st7 {
        fill: #17bfec;
      }

      .st8 {
        fill: #f6c599;
      }

      .st9 {
        fill: #d84598;
      }

      .st3 {
        fill: #e2e7e7;
        stroke: #e2e7e7;
      }
    </style>
  </defs>
  <g id="orange-shadow">
    <g id="orangepinkblobbottomright">
      <path class="st2" d="M471.6,1018.8c-4.8-11.4-4.5-24.5-1.5-36.5s8.4-23.3,13.7-34.5c7.4-15.8,14.5-31.9,21.2-48.1,12.6-30.5,24.2-62.6,22.4-95.5-2.1-37.1-20.7-70.9-33-106-4.6-13.2-8.4-27-7.5-40.9s7.2-28.2,18.9-35.7c16.3-10.5,38.9-5.3,54,7.1,15,12.3,24.1,30.2,32.7,47.6,15.8,32,31.6,65.4,32.2,101.1.9,48.2-25.6,91.8-47,134.9-9.1,18.2-17.6,37.7-16.7,58.1.7,17.4,8.2,33.8,17,48.6h-106.3v-.2h-.1Z"/>
    </g>
  </g>
  <g id="lava-base">
    <g id="lavalampandname">
      <path class="st3" d="M731.4,1017.3L492.7,1l-251.9,2.6L.7,1031.9l116,302.2L3,1576.9l726.3-2.8-112-246.3,114.3-310.5h-.2ZM29.3,1022.2L225,157.4l282.1,1,198.4,860.5-676.1,3.3h-.1Z"/>
      <path class="st9" d="M139.3,1132.4c46.1,9.3,76.5,46.5,87.5,93.8,12,51.9.6,97.7-41.4,98.5-22.7.4-50.5-17.9-73.7-38.1-6.1-24.8-9.2-37.2-15.4-62,20.2,13.7,43.5,29.3,57.6,29.2,12.2-.2,17.4-5.6,13.3-17.8-3.6-10.9-13.2-18.7-30.3-22.7-39.9-9.3-74.6-45.7-96.3-94.3-21.5-48.2-12.8-96.1,40.8-95.9,37.4,0,71,10.2,95.9,27.3-.4,25.5-.2,38.3.9,63.8-16.9-11.2-41.9-20.8-63.3-20.8s-12,7.5-8.9,16.3c4.2,11.7,13.4,18.9,33.3,22.9v-.2h0Z"/>
      <path class="st9" d="M360.7,1026c23.5,99,38,191.2,49.1,292.2-19.3.4-28.9.5-48.2.8-3.4-16.8-5.1-25.3-8.7-42.2-17.9.3-26.9.4-44.7.5-1.4,17-2,25.5-3,42.6-19.4.4-29,.5-48.4.8-1.5-101.4,2.4-194.6,13.5-295.5,36.1.2,54.2.4,90.5.5v.2h0ZM313.9,1211.9c9.9,0,14.9,0,24.8-.2-5.7-24.8-8.8-37.2-15.6-62.1-4.3,24.9-6.2,37.3-9.2,62.3h0Z"/>
      <path class="st9" d="M602.5,1170.1c-34.1,58.2-51,87.4-73.8,146.1-11,.2-16.6.3-27.7.5,3.5-58.5,8.4-87.7,12.7-146.3-22.4,58.6-33.6,87.9-47.8,146.8-19.6.4-29.4.5-49,.8,21.7-99.2,48.8-194,77.4-291.3,31.7.2,47.6.3,78.7.4,1.3,51.3-1.7,76.8-9.3,127.7,27.3-51,42.6-76.4,67.6-127.4,30.1,0,45,.2,74.1.2-27.5,97.9-62.5,190.9-95.5,287.1-19.6.4-29.3.6-48.9.8,12.7-58.4,23.7-87.4,41.5-145.5v.2h0Z"/>
      <path class="st7" d="M127.3,1427.7c12.7,0,19,0,31.7-.2,13-36.8,19.5-55.2,32.7-91.9,14.4,0,21.6,0,35.9-.2-28.3,96.7-41.5,145.3-69.8,242-20.7.2-31.2.3-51.9.5,12.8-35.8,19.1-53.7,31.8-89.6-13.9,0-20.8.2-34.8.3-14.5,35.9-21.7,53.8-36.2,89.7-20.7.2-31.2.3-51.9.5,38-81,75.9-161.9,113.9-242.9h36.1c-14.9,36.8-22.4,55.2-37.2,92h-.2v-.2Z"/>
      <path class="st7" d="M314,1335c1,96.4,7,144.8,20.7,241-20.5.2-30.8.3-51.3.4-1.3-13.8-1.9-20.8-3-34.8-16.9,0-25.4.2-42.3.4-5.8,13.9-8.7,20.9-14.9,34.9-20.6.2-30.9.3-51.5.4,38.4-77.8,72.2-160.1,100.7-242.1,16.6,0,24.9,0,41.4-.2h.2,0ZM258.2,1488.1c7.7,0,11.6,0,19.3-.2-.7-20.4-1-30.6-1.2-51.1-7,20.5-10.6,30.7-18.1,51.2h0Z"/>
      <path class="st7" d="M396.4,1515.1c18.6-.2,27.9-.2,46.5-.4,2.2,24.2,3.2,36.2,5,60.3-40.9.4-61.4.5-102.4.8,5.4-96.3,5.6-144.8,11-241.1,14.2,0,21.4,0,35.6-.2.7,72.1,2.5,108.3,4.3,180.5h0Z"/>
      <path class="st7" d="M525.7,1393.8c-16,0-24.1.2-40.1.3,2.3,12.4,3.4,18.6,5.7,31,16,0,24-.2,40-.3,6.1,24.1,9.1,36.1,15.2,60.2-17.6,0-26.4.2-43.9.3,2.2,11.6,3.3,17.4,5.3,29,19.3-.2,29-.2,48.4-.4,6.1,24.1,9,36.1,14.6,60.1-41.8.4-62.6.5-104.3.8-9.4-96-17.6-144.5-27-240.5,28.6-.2,42.9-.2,71.7-.4,5.5,23.9,8.5,35.9,14.5,59.8h-.1Z"/>
      <path class="st7" d="M592.5,1393.4c-2.3-23.9-3.7-35.9-6.7-59.7h38.3c8.6,51.7,12.6,77.8,16.3,129.9,17.8,43.9,26.8,65.9,43.1,109.7-21.3.2-32,.3-53.3.5-13.4-43.8-20.9-65.8-35.7-109.8-33.7-52-49.3-78-75.1-129.8,14.7,0,22,0,36.8-.2,13.5,23.8,20.8,35.8,36.2,59.6h0v-.2Z"/>
    </g>
  </g>
  <g id="orange-highlight">
    <path class="st5" d="M492.3,960.6c-17.9,32.7-10.7,45.1-5,47.1,21.5,1.2,61.8-2.7,50.8-28.5-13.6-32.2,5-37.2,8.7-57s36-49.6,49.6-74.4c13.6-24.8,6.2-83.1-19.8-164.9-20.8-65.5-57.5-41.3-73.2-21.1,1.2,16.1,8.4,55.1,27.3,81.8,23.6,33.5,17.4,73.2,22.3,90.5s-38.4,85.6-60.8,126.5h.1Z"/>
  </g>
  <g id="yellow-shadow">
    <g id="yellowblobtopright">
      <path class="st8" d="M398.9,400.7c5.6-12.9,11.3-27.3,7-40.8-3.2-10-11.3-17.4-19.5-23.9-12.5-9.9-26.1-18.6-36.7-30.4-18.6-20.8-26.2-51.6-16.8-77.9,9.3-26.3,36.4-45.9,64.2-44.1,13.1.9,26.1,6.4,35.1,16.1,13.9,15,16.1,37.1,17.7,57.5,1.5,20.4,3.9,42.5,17.8,57.5,5.5,6,12.5,10.3,18.4,15.8,13.6,12.6,21.2,31,22.4,49.4,1.2,18.5-3.7,37.1-12.3,53.5-4.6,8.9-10.4,17.4-18.6,23.1-6.1,4.3-13.2,6.9-20.4,8.9-13.9,3.7-29.1,5-42.7,0-13.6-4.9-25.2-17.1-26.2-31.5-1-14.6,9.4-27.8,13.9-41.8"/>
      <path class="st0" d="M398.9,400.7c5.6-12.9,11.3-27.3,7-40.8-3.2-10-11.3-17.4-19.5-23.9-12.5-9.9-26.1-18.6-36.7-30.4-18.6-20.8-26.2-51.6-16.8-77.9,9.3-26.3,36.4-45.9,64.2-44.1,13.1.9,26.1,6.4,35.1,16.1,13.9,15,16.1,37.1,17.7,57.5,1.5,20.4,3.9,42.5,17.8,57.5,5.5,6,12.5,10.3,18.4,15.8,13.6,12.6,21.2,31,22.4,49.4,1.2,18.5-3.7,37.1-12.3,53.5-4.6,8.9-10.4,17.4-18.6,23.1-6.1,4.3-13.2,6.9-20.4,8.9-13.9,3.7-29.1,5-42.7,0-13.6-4.9-25.2-17.1-26.2-31.5-1-14.6,9.4-27.8,13.9-41.8"/>
    </g>
  </g>
  <g id="yellow-highlight">
    <path class="st6" d="M434.7,274.8c-15-57.5-41.7-67-53.1-64.6-20.8-8.4-32.3,17.3-35.4,31.2-.3,6.2,10.2,28.3,55.2,66.7,56.2,47.9,22.9,40.6,5.2,105.2-17.7,64.6,51,40.6,77.1,24,20.8-13.3,12.8-50,6.2-66.7-12.1-8-40.2-38.3-55.2-95.8h0Z"/>
  </g>
  <g id="pink-shadow">
    <g id="Purplepinkblobbottomleft">
      <path class="st1" d="M86.6,1021c-8.2-11.2-10-26.2-7.5-39.9,2.4-13.8,8.6-26.4,15.3-38.6,19-34.6,42.8-66.7,58.5-103.1,22.9-53.3,26.9-113.7,16.4-170.6-8.3-45-25.4-91.4-12.5-135.3,6.2-21,18.8-39.6,33.5-55.8,12.1-13.4,26.1-25.5,42.7-32.7,25.3-10.9,55.4-8.8,79.6,4.3,24.2,13.1,42.1,36.8,49.5,63.3,5.8,20.9,5.3,43.1,4.1,64.8-2.2,37-6.4,74.3-19.4,108.9-14.7,39.5-39.9,74-64.7,108-24.8,34-49.8,68.6-64.2,108.1-14.4,39.6-20.1,80.9-.4,118.1l-130.8.5h0Z"/>
    </g>
  </g>
  <g id="pink-highlight">
    <path class="st4" d="M320,512.1c-10.5-64.5-47.7-42.8-86.4-32.1-43.4,10.5-62.5,70.7-66.6,99.5,20.3,65.8,49,211.7,1.6,269-47.4,57.3-79.8,116-72.4,147.2,28,13.2,75.8,3,69.9-37.8s35.4-105.3,56.8-132.4c20.6-19.7,67.5-74,90.5-133.3,28.8-74,19.7-99.5,6.6-180.2h0Z"/>
  </g>
</svg>